<svg width="43" height="46" viewBox="0 0 43 46" fill="none" xmlns="http://www.w3.org/2000/svg">
<path d="M42.765 33.6464L42.7742 33.6413H42.7561L32.1299 27.8833L21.486 22.1152L10.8416 27.8833L0.215348 33.6413H0.197266L0.206517 33.6464L0.197266 33.6515H0.215348L10.8416 39.4094L21.486 45.1775L32.1299 39.4094L42.7561 33.6515H42.7742L42.765 33.6464Z" fill="#0D0081"/>
<path d="M42.765 11.5312L42.7742 11.5265H42.7561L32.1299 5.76811L21.486 0L10.8416 5.76811L0.215348 11.5265H0.197266L0.206517 11.5312L0.197266 11.5362H0.215348L10.8416 17.2946L21.486 23.0627L32.1299 17.2946L42.7561 11.5362H42.7742L42.765 11.5312Z" fill="#4A3AFF"/>
<path d="M0.215332 11.0625V34.1151L21.4859 22.589L0.215332 11.0625Z" fill="#B8B1FF"/>
<path d="M42.756 11.0625V34.1151L21.4858 22.589L42.756 11.0625Z" fill="#B8B1FF"/>
</svg>
