<svg width="208" height="53" viewBox="0 0 208 53" fill="none" xmlns="http://www.w3.org/2000/svg">
<path d="M31.155 34.38H38.995V39H25.17V14.43H31.155V34.38ZM60.2597 28.92C60.2597 29.48 60.2247 30.0633 60.1547 30.67H46.6097C46.703 31.8833 47.088 32.8167 47.7647 33.47C48.4647 34.1 49.3164 34.415 50.3197 34.415C51.813 34.415 52.8514 33.785 53.4347 32.525H59.8047C59.478 33.8083 58.883 34.9633 58.0197 35.99C57.1797 37.0167 56.118 37.8217 54.8347 38.405C53.5514 38.9883 52.1164 39.28 50.5297 39.28C48.6164 39.28 46.913 38.8717 45.4197 38.055C43.9264 37.2383 42.7597 36.0717 41.9197 34.555C41.0797 33.0383 40.6597 31.265 40.6597 29.235C40.6597 27.205 41.068 25.4317 41.8847 23.915C42.7247 22.3983 43.8914 21.2317 45.3847 20.415C46.878 19.5983 48.593 19.19 50.5297 19.19C52.4197 19.19 54.0997 19.5867 55.5697 20.38C57.0397 21.1733 58.183 22.305 58.9997 23.775C59.8397 25.245 60.2597 26.96 60.2597 28.92ZM54.1347 27.345C54.1347 26.3183 53.7847 25.5017 53.0847 24.895C52.3847 24.2883 51.5097 23.985 50.4597 23.985C49.4564 23.985 48.6047 24.2767 47.9047 24.86C47.228 25.4433 46.808 26.2717 46.6447 27.345H54.1347ZM70.8371 19.19C72.2137 19.19 73.4154 19.47 74.4421 20.03C75.4921 20.59 76.2971 21.325 76.8571 22.235V19.47H82.8421V38.965C82.8421 40.7617 82.4804 42.3833 81.7571 43.83C81.0571 45.3 79.9721 46.4667 78.5021 47.33C77.0554 48.1933 75.2471 48.625 73.0771 48.625C70.1837 48.625 67.8387 47.9367 66.0421 46.56C64.2454 45.2067 63.2187 43.3633 62.9621 41.03H68.8771C69.0637 41.7767 69.5071 42.36 70.2071 42.78C70.9071 43.2233 71.7704 43.445 72.7971 43.445C74.0337 43.445 75.0137 43.0833 75.7371 42.36C76.4837 41.66 76.8571 40.5283 76.8571 38.965V36.2C76.2737 37.11 75.4687 37.8567 74.4421 38.44C73.4154 39 72.2137 39.28 70.8371 39.28C69.2271 39.28 67.7687 38.8717 66.4621 38.055C65.1554 37.215 64.1171 36.0367 63.3471 34.52C62.6004 32.98 62.2271 31.2067 62.2271 29.2C62.2271 27.1933 62.6004 25.4317 63.3471 23.915C64.1171 22.3983 65.1554 21.2317 66.4621 20.415C67.7687 19.5983 69.2271 19.19 70.8371 19.19ZM76.8571 29.235C76.8571 27.7417 76.4371 26.5633 75.5971 25.7C74.7804 24.8367 73.7771 24.405 72.5871 24.405C71.3971 24.405 70.3821 24.8367 69.5421 25.7C68.7254 26.54 68.3171 27.7067 68.3171 29.2C68.3171 30.6933 68.7254 31.8833 69.5421 32.77C70.3821 33.6333 71.3971 34.065 72.5871 34.065C73.7771 34.065 74.7804 33.6333 75.5971 32.77C76.4371 31.9067 76.8571 30.7283 76.8571 29.235ZM85.982 29.2C85.982 27.1933 86.3553 25.4317 87.102 23.915C87.872 22.3983 88.9103 21.2317 90.217 20.415C91.5236 19.5983 92.982 19.19 94.592 19.19C95.9686 19.19 97.1703 19.47 98.197 20.03C99.247 20.59 100.052 21.325 100.612 22.235V19.47H106.597V39H100.612V36.235C100.029 37.145 99.212 37.88 98.162 38.44C97.1353 39 95.9336 39.28 94.557 39.28C92.9703 39.28 91.5236 38.8717 90.217 38.055C88.9103 37.215 87.872 36.0367 87.102 34.52C86.3553 32.98 85.982 31.2067 85.982 29.2ZM100.612 29.235C100.612 27.7417 100.192 26.5633 99.352 25.7C98.5353 24.8367 97.532 24.405 96.342 24.405C95.152 24.405 94.137 24.8367 93.297 25.7C92.4803 26.54 92.072 27.7067 92.072 29.2C92.072 30.6933 92.4803 31.8833 93.297 32.77C94.137 33.6333 95.152 34.065 96.342 34.065C97.532 34.065 98.5353 33.6333 99.352 32.77C100.192 31.9067 100.612 30.7283 100.612 29.235ZM116.912 13.1V39H110.927V13.1H116.912ZM130.454 14.43C133.044 14.43 135.307 14.9433 137.244 15.97C139.181 16.9967 140.674 18.4433 141.724 20.31C142.797 22.1533 143.334 24.2883 143.334 26.715C143.334 29.1183 142.797 31.2533 141.724 33.12C140.674 34.9867 139.169 36.4333 137.209 37.46C135.272 38.4867 133.021 39 130.454 39H121.249V14.43H130.454ZM130.069 33.82C132.332 33.82 134.094 33.2017 135.354 31.965C136.614 30.7283 137.244 28.9783 137.244 26.715C137.244 24.4517 136.614 22.69 135.354 21.43C134.094 20.17 132.332 19.54 130.069 19.54H127.234V33.82H130.069ZM165.089 28.92C165.089 29.48 165.054 30.0633 164.984 30.67H151.439C151.532 31.8833 151.917 32.8167 152.594 33.47C153.294 34.1 154.145 34.415 155.149 34.415C156.642 34.415 157.68 33.785 158.264 32.525H164.634C164.307 33.8083 163.712 34.9633 162.849 35.99C162.009 37.0167 160.947 37.8217 159.664 38.405C158.38 38.9883 156.945 39.28 155.359 39.28C153.445 39.28 151.742 38.8717 150.249 38.055C148.755 37.2383 147.589 36.0717 146.749 34.555C145.909 33.0383 145.489 31.265 145.489 29.235C145.489 27.205 145.897 25.4317 146.714 23.915C147.554 22.3983 148.72 21.2317 150.214 20.415C151.707 19.5983 153.422 19.19 155.359 19.19C157.249 19.19 158.929 19.5867 160.399 20.38C161.869 21.1733 163.012 22.305 163.829 23.775C164.669 25.245 165.089 26.96 165.089 28.92ZM158.964 27.345C158.964 26.3183 158.614 25.5017 157.914 24.895C157.214 24.2883 156.339 23.985 155.289 23.985C154.285 23.985 153.434 24.2767 152.734 24.86C152.057 25.4433 151.637 26.2717 151.474 27.345H158.964ZM174.231 22.235C174.791 21.325 175.596 20.59 176.646 20.03C177.696 19.47 178.898 19.19 180.251 19.19C181.861 19.19 183.32 19.5983 184.626 20.415C185.933 21.2317 186.96 22.3983 187.706 23.915C188.476 25.4317 188.861 27.1933 188.861 29.2C188.861 31.2067 188.476 32.98 187.706 34.52C186.96 36.0367 185.933 37.215 184.626 38.055C183.32 38.8717 181.861 39.28 180.251 39.28C178.875 39.28 177.673 39.0117 176.646 38.475C175.62 37.915 174.815 37.18 174.231 36.27V39H168.246V13.1H174.231V22.235ZM182.771 29.2C182.771 27.7067 182.351 26.54 181.511 25.7C180.695 24.8367 179.68 24.405 178.466 24.405C177.276 24.405 176.261 24.8367 175.421 25.7C174.605 26.5633 174.196 27.7417 174.196 29.235C174.196 30.7283 174.605 31.9067 175.421 32.77C176.261 33.6333 177.276 34.065 178.466 34.065C179.656 34.065 180.671 33.6333 181.511 32.77C182.351 31.8833 182.771 30.6933 182.771 29.2ZM202.886 33.925V39H199.841C197.671 39 195.979 38.475 194.766 37.425C193.553 36.3517 192.946 34.6133 192.946 32.21V24.44H190.566V19.47H192.946V14.71H198.931V19.47H202.851V24.44H198.931V32.28C198.931 32.8633 199.071 33.2833 199.351 33.54C199.631 33.7967 200.098 33.925 200.751 33.925H202.886Z" fill="white"/>
<path d="M3.86364 41L17 27.5789L10.0455 22.8421L13.1364 11L0 24.4211L6.95455 29.1579L3.86364 41Z" fill="white"/>
<path d="M202.695 8.8H201.307V13H200.369V8.8H199V8H202.695V8.8ZM204.447 8L205.613 11.6111L206.773 8H208V13H207.053V11.6111L207.157 9.24444L205.93 13H205.291L204.068 9.25L204.163 11.6111V13H203.23V8H204.447Z" fill="white"/>
</svg>
