<svg width="54" height="45" viewBox="0 0 54 45" fill="none" xmlns="http://www.w3.org/2000/svg">
<path d="M40.4789 9.34523C38.1375 6.50916 34.9779 4.46476 31.4315 3.49107C27.885 2.51738 24.1245 2.66185 20.6632 3.90476C17.2018 5.14768 14.2084 7.42847 12.0915 10.4358C9.97463 13.4432 8.83735 17.0305 8.83496 20.7082V25.5874" stroke="white" stroke-opacity="0.4" stroke-width="5" stroke-linecap="round" stroke-linejoin="round"/>
<path d="M14.5142 35.9472C16.9696 38.549 20.1494 40.3537 23.6421 41.1278C27.1348 41.9018 30.7794 41.6095 34.1041 40.2888C37.4288 38.968 40.2804 36.6796 42.2898 33.7197C44.2991 30.7599 45.3737 27.2651 45.3743 23.6876V20.4392" stroke="white" stroke-opacity="0.4" stroke-width="5" stroke-linecap="round" stroke-linejoin="round"/>
<path d="M16.9235 17.5961C16.9133 17.7918 16.8487 17.9818 16.7336 18.1467L9.16422 28.8699C8.95542 29.1644 8.61171 29.3327 8.25119 29.3138C7.89067 29.2949 7.56645 29.0916 7.38958 28.7768L0.982574 17.3212C0.796874 16.9878 0.805681 16.5791 1.00903 16.2549C1.21105 15.9292 1.57263 15.7407 1.95411 15.7607L15.9305 16.4932C16.3119 16.5132 16.6518 16.7384 16.8187 17.0834C16.8985 17.2459 16.9326 17.4229 16.9235 17.5961Z" fill="white"/>
<path d="M36.8722 27.3593C36.879 27.1661 36.9395 26.9776 37.0502 26.8129L44.3335 16.1029C44.5345 15.8088 44.8707 15.6367 45.2267 15.6492C45.5827 15.6616 45.9061 15.8567 46.086 16.1641L52.6045 27.356C52.7935 27.6818 52.7918 28.0852 52.5968 28.4086C52.4031 28.7334 52.0496 28.9255 51.6729 28.9123L37.871 28.4304C37.4943 28.4172 37.1551 28.2009 36.9845 27.8634C36.903 27.7044 36.8663 27.5304 36.8722 27.3593Z" fill="white"/>
</svg>
