<svg width="48" height="42" viewBox="0 0 48 42" fill="none" xmlns="http://www.w3.org/2000/svg">
<g clip-path="url(#clip0_148_3917)">
<path fill-rule="evenodd" clip-rule="evenodd" d="M46.4327 12.8889H36.7209C32.2014 12.8968 28.5401 16.4666 28.5319 20.8732C28.5258 25.2898 32.1912 28.8755 36.7209 28.8815H46.4409V29.5831C46.4409 37.2872 41.7705 41.8429 33.8669 41.8429H13.1487C5.24315 41.8429 0.572754 37.2872 0.572754 29.5831V12.8034C0.572754 5.09931 5.24315 0.561523 13.1487 0.561523H33.8587C41.7623 0.561523 46.4327 5.09931 46.4327 12.8034V12.8889ZM11.4425 12.8709H24.3773H24.3855H24.4018C25.3701 12.8669 26.1529 12.0977 26.1488 11.1516C26.1448 10.2075 25.3538 9.4442 24.3855 9.44817H11.4425C10.4803 9.45215 9.69954 10.2134 9.69546 11.1536C9.69138 12.0977 10.4742 12.8669 11.4425 12.8709Z" fill="white"/>
<path opacity="0.4" d="M32.766 21.8825C33.2456 24.064 35.1582 25.5988 37.3417 25.5589H44.7951C45.7037 25.5589 46.4406 24.8064 46.4406 23.8764V18.0705C46.4387 17.1424 45.7037 16.388 44.7951 16.386H37.1663C34.6824 16.394 32.6763 18.4557 32.6802 20.9964C32.6802 21.2938 32.7094 21.5911 32.766 21.8825Z" fill="white"/>
<path d="M37.2666 23.2663C38.5332 23.2663 39.56 22.2395 39.56 20.9729C39.56 19.7063 38.5332 18.6795 37.2666 18.6795C35.9999 18.6795 34.9731 19.7063 34.9731 20.9729C34.9731 22.2395 35.9999 23.2663 37.2666 23.2663Z" fill="white"/>
</g>
<defs>
<clipPath id="clip0_148_3917">
<rect width="47" height="42" fill="white" transform="translate(0.333496)"/>
</clipPath>
</defs>
</svg>
