<svg width="45" height="43" viewBox="0 0 45 43" fill="none" xmlns="http://www.w3.org/2000/svg">
<g clip-path="url(#clip0_148_3908)">
<path opacity="0.4" d="M32.7526 0H12.9451C5.72687 0 1.63721 4.08967 1.63721 11.3078V31.0965C1.63721 38.3147 5.72687 42.4044 12.9451 42.4044H32.7526C39.9708 42.4044 44.0416 38.3147 44.0416 31.0965V11.3078C44.0416 4.08967 39.9708 0 32.7526 0Z" fill="white"/>
<path d="M13.0198 15.6238C12.0587 15.6238 11.2671 16.4153 11.2671 17.3953V31.9636C11.2671 32.9248 12.0587 33.7163 13.0198 33.7163C13.9999 33.7163 14.7914 32.9248 14.7914 31.9636V17.3953C14.7914 16.4153 13.9999 15.6238 13.0198 15.6238Z" fill="white"/>
<path d="M22.9148 8.66943C21.9536 8.66943 21.1621 9.46098 21.1621 10.441V31.9636C21.1621 32.9247 21.9536 33.7163 22.9148 33.7163C23.8948 33.7163 24.6863 32.9247 24.6863 31.9636V10.441C24.6863 9.46098 23.8948 8.66943 22.9148 8.66943Z" fill="white"/>
<path d="M32.6769 23.3132C31.6969 23.3132 30.9053 24.1048 30.9053 25.0848V31.9637C30.9053 32.9249 31.6969 33.7164 32.658 33.7164C33.638 33.7164 34.4296 32.9249 34.4296 31.9637V25.0848C34.4296 24.1048 33.638 23.3132 32.6769 23.3132Z" fill="white"/>
</g>
<defs>
<clipPath id="clip0_148_3908">
<rect width="44" height="43" fill="white" transform="translate(0.666504)"/>
</clipPath>
</defs>
</svg>
