<svg width="43" height="42" viewBox="0 0 43 42" fill="none" xmlns="http://www.w3.org/2000/svg">
<path opacity="0.4" d="M2.454 9.14178H26.8178C27.9449 9.14178 28.8597 10.0566 28.8597 11.1837C28.8597 12.3108 27.9449 13.2256 26.8178 13.2256H2.454C1.32688 13.2256 0.412109 12.3108 0.412109 11.1837C0.412109 10.0566 1.32688 9.14178 2.454 9.14178Z" fill="white"/>
<mask id="mask0_148_3891" style="mask-type:alpha" maskUnits="userSpaceOnUse" x="24" y="0" width="18" height="22">
<path fill-rule="evenodd" clip-rule="evenodd" d="M24 21.9889V0H41.5697V21.9889H24Z" fill="white"/>
</mask>
<g mask="url(#mask0_148_3891)">
<path d="M25.379 0.187683C25.6364 0.187683 25.8901 0.259389 26.1144 0.399127L40.706 9.59426C41.1068 9.84796 41.3514 10.2875 41.3514 10.7618C41.3514 11.2362 41.1068 11.6757 40.706 11.9294L26.1144 21.1245C25.6897 21.3911 25.1528 21.4077 24.7134 21.1631C24.2721 20.9204 24 20.4589 24 19.957V1.56668C24 1.06472 24.2721 0.603219 24.7134 0.360516C24.9211 0.24468 25.151 0.187683 25.379 0.187683Z" fill="white"/>
</g>
<path opacity="0.4" d="M39.892 33.2627H15.5282C14.4011 33.2627 13.4863 32.348 13.4863 31.2208C13.4863 30.0937 14.4011 29.179 15.5282 29.179H39.892C41.0191 29.179 41.9339 30.0937 41.9339 31.2208C41.9339 32.348 41.0191 33.2627 39.892 33.2627Z" fill="white"/>
<mask id="mask1_148_3891" style="mask-type:alpha" maskUnits="userSpaceOnUse" x="0" y="19" width="18" height="23">
<path fill-rule="evenodd" clip-rule="evenodd" d="M17.5697 19.9937V41.9825H0V19.9937H17.5697Z" fill="white"/>
</mask>
<g mask="url(#mask1_148_3891)">
<path d="M16.1906 41.7948C15.9332 41.7948 15.6795 41.7231 15.4552 41.5834L0.863633 32.3882C0.462805 32.1345 0.218262 31.6951 0.218262 31.2207C0.218262 30.7463 0.462805 30.3069 0.863633 30.0532L15.4552 20.858C15.8799 20.5914 16.4168 20.5749 16.8562 20.8194C17.2975 21.0621 17.5696 21.5236 17.5696 22.0256V40.4158C17.5696 40.9178 17.2975 41.3793 16.8562 41.622C16.6485 41.7378 16.4186 41.7948 16.1906 41.7948Z" fill="white"/>
</g>
</svg>
